<?xml version="1.0" encoding="UTF-8"?>
<!DOCTYPE svg PUBLIC "-//W3C//DTD SVG 1.0//EN" "http://www.w3.org/TR/2001/REC-SVG-20010904/DTD/svg10.dtd">
<!-- Creator: CorelDRAW 2017 -->
<svg xmlns="http://www.w3.org/2000/svg" xml:space="preserve" width="128px" height="128px" version="1.0" style="shape-rendering:geometricPrecision; text-rendering:geometricPrecision; image-rendering:optimizeQuality; fill-rule:evenodd; clip-rule:evenodd"
viewBox="0 0 128 128"
 xmlns:xlink="http://www.w3.org/1999/xlink">
 <defs>
  <style type="text/css">
   <![CDATA[
    .fil0 {fill:gray}
    .fil2 {fill:#D2D3D5;fill-rule:nonzero}
    .fil1 {fill:white;fill-rule:nonzero}
   ]]>
  </style>
 </defs>
 <g id="Layer_x0020_1">
  <metadata id="CorelCorpID_0Corel-Layer"/>
  <circle class="fil0" cx="64" cy="64" r="62.215"/>
  <path class="fil1" d="M64 1.285c17.318,0 32.997,7.02 44.346,18.369 11.349,11.349 18.369,27.028 18.369,44.346 0,17.318 -7.02,32.997 -18.369,44.346 -11.349,11.349 -27.028,18.369 -44.346,18.369 -17.318,0 -32.997,-7.02 -44.346,-18.369 -11.349,-11.349 -18.369,-27.028 -18.369,-44.346 0,-17.318 7.02,-32.997 18.369,-44.346 11.349,-11.349 27.028,-18.369 44.346,-18.369zm43.639 19.076c-11.168,-11.168 -26.597,-18.076 -43.639,-18.076 -17.042,0 -32.471,6.908 -43.639,18.076 -11.168,11.168 -18.076,26.597 -18.076,43.639 0,17.042 6.908,32.471 18.076,43.639 11.168,11.168 26.597,18.076 43.639,18.076 17.042,0 32.471,-6.908 43.639,-18.076 11.168,-11.168 18.076,-26.597 18.076,-43.639 0,-17.042 -6.908,-32.471 -18.076,-43.639z"/>
  <g>
   <path class="fil2" d="M64.001 24.984c-15.635,0 -26.871,13.112 -23.774,31.7 -3.962,1.981 -1.981,11.887 3.962,11.887 0,11.887 13.869,19.812 19.812,19.812 5.942,0 19.81,-7.925 19.81,-19.812 5.943,0 7.924,-9.906 3.962,-11.887 3.097,-18.588 -8.138,-31.7 -23.772,-31.7zm-10.3 59.336l-24.981 7.054c-6.187,2.318 -10.288,8.231 -10.288,14.84 9.741,12.116 28.98,20.001 45.568,20.001 16.588,0 35.827,-7.885 45.568,-20.001 0,-6.609 -4.101,-12.522 -10.288,-14.84l-24.981 -7.054 -20.598 0z"/>
  </g>
  <path class="fil1" d="M64.001 25.484c-1.479,0 -2.914,0.118 -4.295,0.348 -5.693,0.949 -10.565,3.794 -14.012,8.071 -3.453,4.286 -5.482,10.017 -5.482,16.729 0,1.918 0.165,3.912 0.507,5.97 0.039,0.23 -0.088,0.45 -0.293,0.539 -0.847,0.436 -1.378,1.326 -1.615,2.415 -0.229,1.05 -0.185,2.274 0.107,3.463 0.293,1.192 0.834,2.345 1.6,3.249 0.912,1.079 2.151,1.803 3.671,1.803 0.276,0 0.5,0.224 0.5,0.5 0,4.873 2.415,9.071 5.64,12.296 1.128,1.128 2.352,2.135 3.605,3.012 0.036,0.019 0.069,0.042 0.1,0.07 3.639,2.522 7.509,3.934 9.967,3.934 2.456,0 6.324,-1.411 9.962,-3.932 0.033,-0.029 0.068,-0.054 0.106,-0.074 1.252,-0.876 2.475,-1.883 3.602,-3.01 3.225,-3.225 5.64,-7.424 5.64,-12.296 0,-0.276 0.224,-0.5 0.5,-0.5 1.521,0 2.759,-0.724 3.671,-1.802 0.766,-0.905 1.307,-2.058 1.6,-3.249 0.292,-1.19 0.336,-2.413 0.107,-3.464 -0.239,-1.099 -0.777,-1.996 -1.639,-2.427 -0.2,-0.1 -0.303,-0.317 -0.269,-0.527 0.342,-2.058 0.507,-4.052 0.507,-5.97 0,-6.713 -2.028,-12.443 -5.482,-16.729 -3.446,-4.277 -8.318,-7.122 -14.011,-8.071 -1.38,-0.23 -2.815,-0.348 -4.294,-0.348zm-4.459 -0.636c1.444,-0.24 2.934,-0.364 4.459,-0.364 1.525,0 3.014,0.124 4.458,0.364 5.939,0.99 11.024,3.962 14.624,8.43 3.594,4.459 5.705,10.406 5.705,17.354 0,1.857 -0.152,3.791 -0.468,5.791 0.969,0.62 1.574,1.675 1.846,2.923 0.26,1.194 0.213,2.576 -0.115,3.912 -0.328,1.334 -0.939,2.63 -1.807,3.655 -0.993,1.174 -2.319,1.998 -3.94,2.137 -0.151,4.97 -2.639,9.236 -5.926,12.524 -0.928,0.929 -1.923,1.78 -2.948,2.547l24.024 6.786c3.192,1.196 5.846,3.319 7.701,5.995 1.855,2.677 2.913,5.906 2.913,9.312 -0.001,0.11 -0.037,0.22 -0.111,0.312 -4.832,6.01 -11.968,10.987 -19.958,14.494 -8.28,3.634 -17.486,5.695 -25.999,5.695 -8.513,0 -17.719,-2.061 -25.999,-5.695 -7.977,-3.502 -15.103,-8.468 -19.934,-14.464 -0.084,-0.09 -0.135,-0.21 -0.135,-0.342 0,-3.406 1.058,-6.635 2.913,-9.312 1.849,-2.667 4.492,-4.785 7.67,-5.983l0.07 -0.026 23.986 -6.772c-1.025,-0.767 -2.02,-1.618 -2.949,-2.547 -3.287,-3.288 -5.775,-7.554 -5.925,-12.524 -1.622,-0.139 -2.948,-0.963 -3.941,-2.137 -0.868,-1.025 -1.479,-2.322 -1.807,-3.655 -0.328,-1.336 -0.375,-2.718 -0.115,-3.913 0.272,-1.248 0.877,-2.302 1.846,-2.922 -0.316,-2 -0.468,-3.933 -0.468,-5.791 0,-6.948 2.111,-12.894 5.705,-17.354 3.601,-4.469 8.686,-7.44 14.625,-8.43zm4.459 64.035c-2.584,0 -6.61,-1.442 -10.39,-4.019l-24.744 6.986c-2.983,1.124 -5.465,3.113 -7.202,5.619 -1.709,2.465 -2.696,5.433 -2.732,8.571 4.727,5.819 11.679,10.648 19.466,14.066 8.155,3.579 17.22,5.609 25.601,5.609 8.381,0 17.446,-2.03 25.601,-5.609 7.787,-3.418 14.739,-8.247 19.466,-14.066 -0.036,-3.138 -1.023,-6.106 -2.732,-8.571 -1.737,-2.506 -4.219,-4.495 -7.202,-5.619l-24.743 -6.986c-3.781,2.578 -7.806,4.019 -10.389,4.019z"/>
 </g>
</svg>
